<mxfile host="app.diagrams.net" modified="2020-10-06T04:08:18.161Z" agent="5.0 (Windows NT 10.0; Win64; x64) AppleWebKit/537.36 (KHTML, like Gecko) Chrome/85.0.4183.121 Safari/537.36" etag="ijbiBDSpzTiZ8j3erLsu" version="13.7.7" type="github">
  <diagram id="R2lEEEUBdFMjLlhIrx00" name="Page-1">
    <mxGraphModel dx="2473" dy="1344" grid="0" gridSize="10" guides="1" tooltips="1" connect="1" arrows="1" fold="1" page="0" pageScale="1" pageWidth="850" pageHeight="1100" math="0" shadow="0" extFonts="Permanent Marker^https://fonts.googleapis.com/css?family=Permanent+Marker">
      <root>
        <mxCell id="0" />
        <mxCell id="1" parent="0" />
        <mxCell id="nnJnn2oJ8_Mi61VkBBYr-40" style="edgeStyle=orthogonalEdgeStyle;rounded=0;orthogonalLoop=1;jettySize=auto;html=1;exitX=0;exitY=0.5;exitDx=0;exitDy=0;endArrow=ERmany;endFill=0;" edge="1" parent="1" source="nnJnn2oJ8_Mi61VkBBYr-3" target="nnJnn2oJ8_Mi61VkBBYr-19">
          <mxGeometry relative="1" as="geometry">
            <mxPoint x="46" y="100" as="targetPoint" />
          </mxGeometry>
        </mxCell>
        <mxCell id="nnJnn2oJ8_Mi61VkBBYr-12" value="ASIGNACION_CURSO_SECCION" style="shape=table;startSize=26;container=1;collapsible=1;childLayout=tableLayout;fixedRows=1;rowLines=0;fontStyle=1;align=center;resizeLast=1;fillColor=#d5e8d4;strokeColor=#82b366;" vertex="1" parent="1">
          <mxGeometry x="305" y="47" width="419" height="156.64705882352948" as="geometry" />
        </mxCell>
        <mxCell id="nnJnn2oJ8_Mi61VkBBYr-13" value="" style="shape=partialRectangle;collapsible=0;dropTarget=0;pointerEvents=0;fillColor=none;points=[[0,0.5],[1,0.5]];portConstraint=eastwest;top=0;left=0;right=0;bottom=1;" vertex="1" parent="nnJnn2oJ8_Mi61VkBBYr-12">
          <mxGeometry y="26" width="419" height="30" as="geometry" />
        </mxCell>
        <mxCell id="nnJnn2oJ8_Mi61VkBBYr-14" value="PK" style="shape=partialRectangle;overflow=hidden;connectable=0;fillColor=none;top=0;left=0;bottom=0;right=0;fontStyle=1;" vertex="1" parent="nnJnn2oJ8_Mi61VkBBYr-13">
          <mxGeometry width="30" height="30" as="geometry" />
        </mxCell>
        <mxCell id="nnJnn2oJ8_Mi61VkBBYr-15" value="ID ASIGNACION _CURSO_SECCION INT NOT NULL UNIQUE&#xa;AUTO_INCREMENT" style="shape=partialRectangle;overflow=hidden;connectable=0;fillColor=none;top=0;left=0;bottom=0;right=0;align=left;spacingLeft=6;fontStyle=5;" vertex="1" parent="nnJnn2oJ8_Mi61VkBBYr-13">
          <mxGeometry x="30" width="389" height="30" as="geometry" />
        </mxCell>
        <mxCell id="nnJnn2oJ8_Mi61VkBBYr-16" value="" style="shape=partialRectangle;collapsible=0;dropTarget=0;pointerEvents=0;fillColor=none;points=[[0,0.5],[1,0.5]];portConstraint=eastwest;top=0;left=0;right=0;bottom=0;" vertex="1" parent="nnJnn2oJ8_Mi61VkBBYr-12">
          <mxGeometry y="56" width="419" height="30" as="geometry" />
        </mxCell>
        <mxCell id="nnJnn2oJ8_Mi61VkBBYr-17" value="FK1" style="shape=partialRectangle;overflow=hidden;connectable=0;fillColor=none;top=0;left=0;bottom=0;right=0;" vertex="1" parent="nnJnn2oJ8_Mi61VkBBYr-16">
          <mxGeometry width="30" height="30" as="geometry" />
        </mxCell>
        <mxCell id="nnJnn2oJ8_Mi61VkBBYr-18" value="ID_CURSO" style="shape=partialRectangle;overflow=hidden;connectable=0;fillColor=none;top=0;left=0;bottom=0;right=0;align=left;spacingLeft=6;" vertex="1" parent="nnJnn2oJ8_Mi61VkBBYr-16">
          <mxGeometry x="30" width="389" height="30" as="geometry" />
        </mxCell>
        <mxCell id="nnJnn2oJ8_Mi61VkBBYr-19" value="" style="shape=partialRectangle;collapsible=0;dropTarget=0;pointerEvents=0;fillColor=none;points=[[0,0.5],[1,0.5]];portConstraint=eastwest;top=0;left=0;right=0;bottom=0;" vertex="1" parent="nnJnn2oJ8_Mi61VkBBYr-12">
          <mxGeometry y="86" width="419" height="27" as="geometry" />
        </mxCell>
        <mxCell id="nnJnn2oJ8_Mi61VkBBYr-20" value="FK2" style="shape=partialRectangle;overflow=hidden;connectable=0;fillColor=none;top=0;left=0;bottom=0;right=0;" vertex="1" parent="nnJnn2oJ8_Mi61VkBBYr-19">
          <mxGeometry width="30" height="27" as="geometry" />
        </mxCell>
        <mxCell id="nnJnn2oJ8_Mi61VkBBYr-21" value="ID_SECCION" style="shape=partialRectangle;overflow=hidden;connectable=0;fillColor=none;top=0;left=0;bottom=0;right=0;align=left;spacingLeft=6;" vertex="1" parent="nnJnn2oJ8_Mi61VkBBYr-19">
          <mxGeometry x="30" width="389" height="27" as="geometry" />
        </mxCell>
        <mxCell id="nnJnn2oJ8_Mi61VkBBYr-23" value="" style="shape=partialRectangle;collapsible=0;dropTarget=0;pointerEvents=0;fillColor=none;points=[[0,0.5],[1,0.5]];portConstraint=eastwest;top=0;left=0;right=0;bottom=0;" vertex="1" parent="nnJnn2oJ8_Mi61VkBBYr-12">
          <mxGeometry y="113" width="419" height="30" as="geometry" />
        </mxCell>
        <mxCell id="nnJnn2oJ8_Mi61VkBBYr-24" value="" style="shape=partialRectangle;overflow=hidden;connectable=0;fillColor=none;top=0;left=0;bottom=0;right=0;" vertex="1" parent="nnJnn2oJ8_Mi61VkBBYr-23">
          <mxGeometry width="30" height="30" as="geometry" />
        </mxCell>
        <mxCell id="nnJnn2oJ8_Mi61VkBBYr-25" value="HORARIO" style="shape=partialRectangle;overflow=hidden;connectable=0;fillColor=none;top=0;left=0;bottom=0;right=0;align=left;spacingLeft=6;" vertex="1" parent="nnJnn2oJ8_Mi61VkBBYr-23">
          <mxGeometry x="30" width="389" height="30" as="geometry" />
        </mxCell>
        <mxCell id="nnJnn2oJ8_Mi61VkBBYr-44" style="edgeStyle=orthogonalEdgeStyle;rounded=0;orthogonalLoop=1;jettySize=auto;html=1;exitX=0;exitY=0.5;exitDx=0;exitDy=0;entryX=0;entryY=0.5;entryDx=0;entryDy=0;endArrow=ERmany;endFill=0;" edge="1" parent="1" source="nnJnn2oJ8_Mi61VkBBYr-13" target="_7SLQa6OJkf3rark8oZv-10">
          <mxGeometry relative="1" as="geometry" />
        </mxCell>
        <mxCell id="nnJnn2oJ8_Mi61VkBBYr-45" style="edgeStyle=orthogonalEdgeStyle;rounded=0;orthogonalLoop=1;jettySize=auto;html=1;exitX=0;exitY=0.5;exitDx=0;exitDy=0;entryX=0;entryY=0.5;entryDx=0;entryDy=0;endArrow=ERmany;endFill=0;" edge="1" parent="1" source="C-vyLk0tnHw3VtMMgP7b-24" target="_7SLQa6OJkf3rark8oZv-7">
          <mxGeometry relative="1" as="geometry" />
        </mxCell>
        <mxCell id="C-vyLk0tnHw3VtMMgP7b-2" value="CURSO" style="shape=table;startSize=30;container=1;collapsible=1;childLayout=tableLayout;fixedRows=1;rowLines=0;fontStyle=1;align=center;resizeLast=1;fillColor=#fff2cc;strokeColor=#d6b656;" parent="1" vertex="1">
          <mxGeometry x="376" y="-143" width="240" height="130" as="geometry" />
        </mxCell>
        <mxCell id="C-vyLk0tnHw3VtMMgP7b-3" value="" style="shape=partialRectangle;collapsible=0;dropTarget=0;pointerEvents=0;fillColor=none;points=[[0,0.5],[1,0.5]];portConstraint=eastwest;top=0;left=0;right=0;bottom=1;" parent="C-vyLk0tnHw3VtMMgP7b-2" vertex="1">
          <mxGeometry y="30" width="240" height="30" as="geometry" />
        </mxCell>
        <mxCell id="C-vyLk0tnHw3VtMMgP7b-4" value="PK" style="shape=partialRectangle;overflow=hidden;connectable=0;fillColor=none;top=0;left=0;bottom=0;right=0;fontStyle=1;" parent="C-vyLk0tnHw3VtMMgP7b-3" vertex="1">
          <mxGeometry width="30" height="30" as="geometry" />
        </mxCell>
        <mxCell id="C-vyLk0tnHw3VtMMgP7b-5" value="ID CURSO INT NOT NULL UNIQUE&#xa;AUTO_INCREMENT" style="shape=partialRectangle;overflow=hidden;connectable=0;fillColor=none;top=0;left=0;bottom=0;right=0;align=left;spacingLeft=6;fontStyle=5;" parent="C-vyLk0tnHw3VtMMgP7b-3" vertex="1">
          <mxGeometry x="30" width="210" height="30" as="geometry" />
        </mxCell>
        <mxCell id="C-vyLk0tnHw3VtMMgP7b-6" value="" style="shape=partialRectangle;collapsible=0;dropTarget=0;pointerEvents=0;fillColor=none;points=[[0,0.5],[1,0.5]];portConstraint=eastwest;top=0;left=0;right=0;bottom=0;" parent="C-vyLk0tnHw3VtMMgP7b-2" vertex="1">
          <mxGeometry y="60" width="240" height="30" as="geometry" />
        </mxCell>
        <mxCell id="C-vyLk0tnHw3VtMMgP7b-7" value="FK1" style="shape=partialRectangle;overflow=hidden;connectable=0;fillColor=none;top=0;left=0;bottom=0;right=0;" parent="C-vyLk0tnHw3VtMMgP7b-6" vertex="1">
          <mxGeometry width="30" height="30" as="geometry" />
        </mxCell>
        <mxCell id="C-vyLk0tnHw3VtMMgP7b-8" value="ID_CATEDRATICO INT NOT NULL" style="shape=partialRectangle;overflow=hidden;connectable=0;fillColor=none;top=0;left=0;bottom=0;right=0;align=left;spacingLeft=6;" parent="C-vyLk0tnHw3VtMMgP7b-6" vertex="1">
          <mxGeometry x="30" width="210" height="30" as="geometry" />
        </mxCell>
        <mxCell id="C-vyLk0tnHw3VtMMgP7b-9" value="" style="shape=partialRectangle;collapsible=0;dropTarget=0;pointerEvents=0;fillColor=none;points=[[0,0.5],[1,0.5]];portConstraint=eastwest;top=0;left=0;right=0;bottom=0;" parent="C-vyLk0tnHw3VtMMgP7b-2" vertex="1">
          <mxGeometry y="90" width="240" height="30" as="geometry" />
        </mxCell>
        <mxCell id="C-vyLk0tnHw3VtMMgP7b-10" value="" style="shape=partialRectangle;overflow=hidden;connectable=0;fillColor=none;top=0;left=0;bottom=0;right=0;" parent="C-vyLk0tnHw3VtMMgP7b-9" vertex="1">
          <mxGeometry width="30" height="30" as="geometry" />
        </mxCell>
        <mxCell id="C-vyLk0tnHw3VtMMgP7b-11" value="NOMBRE CHAR(30) NOT NULL" style="shape=partialRectangle;overflow=hidden;connectable=0;fillColor=none;top=0;left=0;bottom=0;right=0;align=left;spacingLeft=6;" parent="C-vyLk0tnHw3VtMMgP7b-9" vertex="1">
          <mxGeometry x="30" width="210" height="30" as="geometry" />
        </mxCell>
        <mxCell id="nnJnn2oJ8_Mi61VkBBYr-49" style="edgeStyle=orthogonalEdgeStyle;rounded=0;orthogonalLoop=1;jettySize=auto;html=1;exitX=0;exitY=0.5;exitDx=0;exitDy=0;entryX=0;entryY=0.5;entryDx=0;entryDy=0;endArrow=ERmany;endFill=0;" edge="1" parent="1" source="C-vyLk0tnHw3VtMMgP7b-3" target="nnJnn2oJ8_Mi61VkBBYr-16">
          <mxGeometry relative="1" as="geometry">
            <Array as="points">
              <mxPoint x="287" y="-98" />
              <mxPoint x="287" y="118" />
            </Array>
          </mxGeometry>
        </mxCell>
        <mxCell id="nnJnn2oJ8_Mi61VkBBYr-2" value="SECCION" style="shape=table;startSize=30;container=1;collapsible=1;childLayout=tableLayout;fixedRows=1;rowLines=0;fontStyle=1;align=center;resizeLast=1;fillColor=#fff2cc;strokeColor=#d6b656;" vertex="1" parent="1">
          <mxGeometry x="21" y="-133" width="258" height="130" as="geometry" />
        </mxCell>
        <mxCell id="nnJnn2oJ8_Mi61VkBBYr-3" value="" style="shape=partialRectangle;collapsible=0;dropTarget=0;pointerEvents=0;fillColor=none;points=[[0,0.5],[1,0.5]];portConstraint=eastwest;top=0;left=0;right=0;bottom=1;" vertex="1" parent="nnJnn2oJ8_Mi61VkBBYr-2">
          <mxGeometry y="30" width="258" height="30" as="geometry" />
        </mxCell>
        <mxCell id="nnJnn2oJ8_Mi61VkBBYr-4" value="PK" style="shape=partialRectangle;overflow=hidden;connectable=0;fillColor=none;top=0;left=0;bottom=0;right=0;fontStyle=1;" vertex="1" parent="nnJnn2oJ8_Mi61VkBBYr-3">
          <mxGeometry width="30" height="30" as="geometry" />
        </mxCell>
        <mxCell id="nnJnn2oJ8_Mi61VkBBYr-5" value="ID SECCION INT NOT NULL UNIQUE&#xa;AUTO_INCREMENT" style="shape=partialRectangle;overflow=hidden;connectable=0;fillColor=none;top=0;left=0;bottom=0;right=0;align=left;spacingLeft=6;fontStyle=5;" vertex="1" parent="nnJnn2oJ8_Mi61VkBBYr-3">
          <mxGeometry x="30" width="228" height="30" as="geometry" />
        </mxCell>
        <mxCell id="nnJnn2oJ8_Mi61VkBBYr-6" value="" style="shape=partialRectangle;collapsible=0;dropTarget=0;pointerEvents=0;fillColor=none;points=[[0,0.5],[1,0.5]];portConstraint=eastwest;top=0;left=0;right=0;bottom=0;" vertex="1" parent="nnJnn2oJ8_Mi61VkBBYr-2">
          <mxGeometry y="60" width="258" height="30" as="geometry" />
        </mxCell>
        <mxCell id="nnJnn2oJ8_Mi61VkBBYr-7" value="" style="shape=partialRectangle;overflow=hidden;connectable=0;fillColor=none;top=0;left=0;bottom=0;right=0;" vertex="1" parent="nnJnn2oJ8_Mi61VkBBYr-6">
          <mxGeometry width="30" height="30" as="geometry" />
        </mxCell>
        <mxCell id="nnJnn2oJ8_Mi61VkBBYr-8" value="SECCION" style="shape=partialRectangle;overflow=hidden;connectable=0;fillColor=none;top=0;left=0;bottom=0;right=0;align=left;spacingLeft=6;" vertex="1" parent="nnJnn2oJ8_Mi61VkBBYr-6">
          <mxGeometry x="30" width="228" height="30" as="geometry" />
        </mxCell>
        <mxCell id="nnJnn2oJ8_Mi61VkBBYr-9" value="" style="shape=partialRectangle;collapsible=0;dropTarget=0;pointerEvents=0;fillColor=none;points=[[0,0.5],[1,0.5]];portConstraint=eastwest;top=0;left=0;right=0;bottom=0;" vertex="1" parent="nnJnn2oJ8_Mi61VkBBYr-2">
          <mxGeometry y="90" width="258" height="30" as="geometry" />
        </mxCell>
        <mxCell id="nnJnn2oJ8_Mi61VkBBYr-10" value="" style="shape=partialRectangle;overflow=hidden;connectable=0;fillColor=none;top=0;left=0;bottom=0;right=0;" vertex="1" parent="nnJnn2oJ8_Mi61VkBBYr-9">
          <mxGeometry width="30" height="30" as="geometry" />
        </mxCell>
        <mxCell id="nnJnn2oJ8_Mi61VkBBYr-11" value="SALON" style="shape=partialRectangle;overflow=hidden;connectable=0;fillColor=none;top=0;left=0;bottom=0;right=0;align=left;spacingLeft=6;" vertex="1" parent="nnJnn2oJ8_Mi61VkBBYr-9">
          <mxGeometry x="30" width="228" height="30" as="geometry" />
        </mxCell>
        <mxCell id="_7SLQa6OJkf3rark8oZv-3" value="&#xa;  ESTUDIANTE_ASIGNACION_CURSO_SECCION" style="shape=table;startSize=30;container=1;collapsible=1;childLayout=tableLayout;fixedRows=1;rowLines=0;fontStyle=1;align=center;resizeLast=1;fillColor=#d5e8d4;strokeColor=#82b366;" parent="1" vertex="1">
          <mxGeometry x="69" y="256" width="341" height="280" as="geometry" />
        </mxCell>
        <mxCell id="_7SLQa6OJkf3rark8oZv-4" value="" style="shape=partialRectangle;collapsible=0;dropTarget=0;pointerEvents=0;fillColor=none;points=[[0,0.5],[1,0.5]];portConstraint=eastwest;top=0;left=0;right=0;bottom=1;" parent="_7SLQa6OJkf3rark8oZv-3" vertex="1">
          <mxGeometry y="30" width="341" height="30" as="geometry" />
        </mxCell>
        <mxCell id="_7SLQa6OJkf3rark8oZv-5" value="PK" style="shape=partialRectangle;overflow=hidden;connectable=0;fillColor=none;top=0;left=0;bottom=0;right=0;fontStyle=1;" parent="_7SLQa6OJkf3rark8oZv-4" vertex="1">
          <mxGeometry width="30" height="30" as="geometry" />
        </mxCell>
        <mxCell id="_7SLQa6OJkf3rark8oZv-6" value="ID_ESTUDIANTE_ASIGNACION_CURSO_SECCION &#xa;INT NOT NULL UNIQUE AUTO_INCREMENT" style="shape=partialRectangle;overflow=hidden;connectable=0;fillColor=none;top=0;left=0;bottom=0;right=0;align=left;spacingLeft=6;fontStyle=1;" parent="_7SLQa6OJkf3rark8oZv-4" vertex="1">
          <mxGeometry x="30" width="311" height="30" as="geometry" />
        </mxCell>
        <mxCell id="_7SLQa6OJkf3rark8oZv-7" value="" style="shape=partialRectangle;collapsible=0;dropTarget=0;pointerEvents=0;fillColor=none;points=[[0,0.5],[1,0.5]];portConstraint=eastwest;top=0;left=0;right=0;bottom=0;" parent="_7SLQa6OJkf3rark8oZv-3" vertex="1">
          <mxGeometry y="60" width="341" height="30" as="geometry" />
        </mxCell>
        <mxCell id="_7SLQa6OJkf3rark8oZv-8" value="FK1" style="shape=partialRectangle;overflow=hidden;connectable=0;fillColor=none;top=0;left=0;bottom=0;right=0;" parent="_7SLQa6OJkf3rark8oZv-7" vertex="1">
          <mxGeometry width="30" height="30" as="geometry" />
        </mxCell>
        <mxCell id="_7SLQa6OJkf3rark8oZv-9" value="ID_ESTUDIANTE" style="shape=partialRectangle;overflow=hidden;connectable=0;fillColor=none;top=0;left=0;bottom=0;right=0;align=left;spacingLeft=6;" parent="_7SLQa6OJkf3rark8oZv-7" vertex="1">
          <mxGeometry x="30" width="311" height="30" as="geometry" />
        </mxCell>
        <mxCell id="_7SLQa6OJkf3rark8oZv-10" value="" style="shape=partialRectangle;collapsible=0;dropTarget=0;pointerEvents=0;fillColor=none;points=[[0,0.5],[1,0.5]];portConstraint=eastwest;top=0;left=0;right=0;bottom=0;" parent="_7SLQa6OJkf3rark8oZv-3" vertex="1">
          <mxGeometry y="90" width="341" height="30" as="geometry" />
        </mxCell>
        <mxCell id="_7SLQa6OJkf3rark8oZv-11" value="FK2" style="shape=partialRectangle;overflow=hidden;connectable=0;fillColor=none;top=0;left=0;bottom=0;right=0;" parent="_7SLQa6OJkf3rark8oZv-10" vertex="1">
          <mxGeometry width="30" height="30" as="geometry" />
        </mxCell>
        <mxCell id="_7SLQa6OJkf3rark8oZv-12" value="ID_ASIGNACION_CURSO_SECCION" style="shape=partialRectangle;overflow=hidden;connectable=0;fillColor=none;top=0;left=0;bottom=0;right=0;align=left;spacingLeft=6;" parent="_7SLQa6OJkf3rark8oZv-10" vertex="1">
          <mxGeometry x="30" width="311" height="30" as="geometry" />
        </mxCell>
        <mxCell id="_7SLQa6OJkf3rark8oZv-13" value="" style="shape=partialRectangle;collapsible=0;dropTarget=0;pointerEvents=0;fillColor=none;points=[[0,0.5],[1,0.5]];portConstraint=eastwest;top=0;left=0;right=0;bottom=0;" parent="_7SLQa6OJkf3rark8oZv-3" vertex="1">
          <mxGeometry y="120" width="341" height="30" as="geometry" />
        </mxCell>
        <mxCell id="_7SLQa6OJkf3rark8oZv-14" value="&#xa;&#xa;" style="shape=partialRectangle;overflow=hidden;connectable=0;fillColor=none;top=0;left=0;bottom=0;right=0;" parent="_7SLQa6OJkf3rark8oZv-13" vertex="1">
          <mxGeometry width="30" height="30" as="geometry" />
        </mxCell>
        <mxCell id="_7SLQa6OJkf3rark8oZv-15" value="ZONA INT(2) NOT NULL" style="shape=partialRectangle;overflow=hidden;connectable=0;fillColor=none;top=0;left=0;bottom=0;right=0;align=left;spacingLeft=6;" parent="_7SLQa6OJkf3rark8oZv-13" vertex="1">
          <mxGeometry x="30" width="311" height="30" as="geometry" />
        </mxCell>
        <mxCell id="_7SLQa6OJkf3rark8oZv-17" value="" style="shape=partialRectangle;collapsible=0;dropTarget=0;pointerEvents=0;fillColor=none;points=[[0,0.5],[1,0.5]];portConstraint=eastwest;top=0;left=0;right=0;bottom=0;" parent="_7SLQa6OJkf3rark8oZv-3" vertex="1">
          <mxGeometry y="150" width="341" height="30" as="geometry" />
        </mxCell>
        <mxCell id="_7SLQa6OJkf3rark8oZv-18" value="&#xa;&#xa;" style="shape=partialRectangle;overflow=hidden;connectable=0;fillColor=none;top=0;left=0;bottom=0;right=0;" parent="_7SLQa6OJkf3rark8oZv-17" vertex="1">
          <mxGeometry width="30" height="30" as="geometry" />
        </mxCell>
        <mxCell id="_7SLQa6OJkf3rark8oZv-19" value="PARCIAL 1 INT(2) NOT NULL" style="shape=partialRectangle;overflow=hidden;connectable=0;fillColor=none;top=0;left=0;bottom=0;right=0;align=left;spacingLeft=6;" parent="_7SLQa6OJkf3rark8oZv-17" vertex="1">
          <mxGeometry x="30" width="311" height="30" as="geometry" />
        </mxCell>
        <mxCell id="_7SLQa6OJkf3rark8oZv-20" value="" style="shape=partialRectangle;collapsible=0;dropTarget=0;pointerEvents=0;fillColor=none;points=[[0,0.5],[1,0.5]];portConstraint=eastwest;top=0;left=0;right=0;bottom=0;" parent="_7SLQa6OJkf3rark8oZv-3" vertex="1">
          <mxGeometry y="180" width="341" height="30" as="geometry" />
        </mxCell>
        <mxCell id="_7SLQa6OJkf3rark8oZv-21" value="&#xa;&#xa;" style="shape=partialRectangle;overflow=hidden;connectable=0;fillColor=none;top=0;left=0;bottom=0;right=0;" parent="_7SLQa6OJkf3rark8oZv-20" vertex="1">
          <mxGeometry width="30" height="30" as="geometry" />
        </mxCell>
        <mxCell id="_7SLQa6OJkf3rark8oZv-22" value="PARCIAL 2 INT(2) NOT NULL" style="shape=partialRectangle;overflow=hidden;connectable=0;fillColor=none;top=0;left=0;bottom=0;right=0;align=left;spacingLeft=6;" parent="_7SLQa6OJkf3rark8oZv-20" vertex="1">
          <mxGeometry x="30" width="311" height="30" as="geometry" />
        </mxCell>
        <mxCell id="_7SLQa6OJkf3rark8oZv-23" value="" style="shape=partialRectangle;collapsible=0;dropTarget=0;pointerEvents=0;fillColor=none;points=[[0,0.5],[1,0.5]];portConstraint=eastwest;top=0;left=0;right=0;bottom=0;" parent="_7SLQa6OJkf3rark8oZv-3" vertex="1">
          <mxGeometry y="210" width="341" height="30" as="geometry" />
        </mxCell>
        <mxCell id="_7SLQa6OJkf3rark8oZv-24" value="&#xa;&#xa;" style="shape=partialRectangle;overflow=hidden;connectable=0;fillColor=none;top=0;left=0;bottom=0;right=0;" parent="_7SLQa6OJkf3rark8oZv-23" vertex="1">
          <mxGeometry width="30" height="30" as="geometry" />
        </mxCell>
        <mxCell id="_7SLQa6OJkf3rark8oZv-25" value="EXAMEN FINAL INT(2) NOT NULL" style="shape=partialRectangle;overflow=hidden;connectable=0;fillColor=none;top=0;left=0;bottom=0;right=0;align=left;spacingLeft=6;" parent="_7SLQa6OJkf3rark8oZv-23" vertex="1">
          <mxGeometry x="30" width="311" height="30" as="geometry" />
        </mxCell>
        <mxCell id="_7SLQa6OJkf3rark8oZv-26" value="" style="shape=partialRectangle;collapsible=0;dropTarget=0;pointerEvents=0;fillColor=none;points=[[0,0.5],[1,0.5]];portConstraint=eastwest;top=0;left=0;right=0;bottom=0;" parent="_7SLQa6OJkf3rark8oZv-3" vertex="1">
          <mxGeometry y="240" width="341" height="30" as="geometry" />
        </mxCell>
        <mxCell id="_7SLQa6OJkf3rark8oZv-27" value="&#xa;&#xa;" style="shape=partialRectangle;overflow=hidden;connectable=0;fillColor=none;top=0;left=0;bottom=0;right=0;" parent="_7SLQa6OJkf3rark8oZv-26" vertex="1">
          <mxGeometry width="30" height="30" as="geometry" />
        </mxCell>
        <mxCell id="_7SLQa6OJkf3rark8oZv-28" value="RETRASADA INT(2) NOT NULL" style="shape=partialRectangle;overflow=hidden;connectable=0;fillColor=none;top=0;left=0;bottom=0;right=0;align=left;spacingLeft=6;" parent="_7SLQa6OJkf3rark8oZv-26" vertex="1">
          <mxGeometry x="30" width="311" height="30" as="geometry" />
        </mxCell>
        <mxCell id="nnJnn2oJ8_Mi61VkBBYr-51" style="edgeStyle=orthogonalEdgeStyle;rounded=0;orthogonalLoop=1;jettySize=auto;html=1;exitX=0;exitY=0.5;exitDx=0;exitDy=0;entryX=0;entryY=0.5;entryDx=0;entryDy=0;endArrow=ERmany;endFill=0;" edge="1" parent="1" source="C-vyLk0tnHw3VtMMgP7b-14" target="nnJnn2oJ8_Mi61VkBBYr-30">
          <mxGeometry relative="1" as="geometry" />
        </mxCell>
        <mxCell id="C-vyLk0tnHw3VtMMgP7b-13" value="CATEDRATICO" style="shape=table;startSize=23;container=1;collapsible=1;childLayout=tableLayout;fixedRows=1;rowLines=0;fontStyle=1;align=center;resizeLast=1;fillColor=#fff2cc;strokeColor=#d6b656;" parent="1" vertex="1">
          <mxGeometry x="566" y="469" width="320" height="100" as="geometry" />
        </mxCell>
        <mxCell id="C-vyLk0tnHw3VtMMgP7b-14" value="" style="shape=partialRectangle;collapsible=0;dropTarget=0;pointerEvents=0;fillColor=none;points=[[0,0.5],[1,0.5]];portConstraint=eastwest;top=0;left=0;right=0;bottom=1;" parent="C-vyLk0tnHw3VtMMgP7b-13" vertex="1">
          <mxGeometry y="23" width="320" height="30" as="geometry" />
        </mxCell>
        <mxCell id="C-vyLk0tnHw3VtMMgP7b-15" value="PK" style="shape=partialRectangle;overflow=hidden;connectable=0;fillColor=none;top=0;left=0;bottom=0;right=0;fontStyle=1;" parent="C-vyLk0tnHw3VtMMgP7b-14" vertex="1">
          <mxGeometry width="30" height="30" as="geometry" />
        </mxCell>
        <mxCell id="C-vyLk0tnHw3VtMMgP7b-16" value="ID_CATEDRATICO INT NOT NULL UNIQUE&#xa;AUTO_INCREMENT" style="shape=partialRectangle;overflow=hidden;connectable=0;fillColor=none;top=0;left=0;bottom=0;right=0;align=left;spacingLeft=6;fontStyle=5;" parent="C-vyLk0tnHw3VtMMgP7b-14" vertex="1">
          <mxGeometry x="30" width="290" height="30" as="geometry" />
        </mxCell>
        <mxCell id="C-vyLk0tnHw3VtMMgP7b-17" value="" style="shape=partialRectangle;collapsible=0;dropTarget=0;pointerEvents=0;fillColor=none;points=[[0,0.5],[1,0.5]];portConstraint=eastwest;top=0;left=0;right=0;bottom=0;" parent="C-vyLk0tnHw3VtMMgP7b-13" vertex="1">
          <mxGeometry y="53" width="320" height="30" as="geometry" />
        </mxCell>
        <mxCell id="C-vyLk0tnHw3VtMMgP7b-18" value="" style="shape=partialRectangle;overflow=hidden;connectable=0;fillColor=none;top=0;left=0;bottom=0;right=0;" parent="C-vyLk0tnHw3VtMMgP7b-17" vertex="1">
          <mxGeometry width="30" height="30" as="geometry" />
        </mxCell>
        <mxCell id="C-vyLk0tnHw3VtMMgP7b-19" value="NOMBRE CHAR(30) NOT NULL" style="shape=partialRectangle;overflow=hidden;connectable=0;fillColor=none;top=0;left=0;bottom=0;right=0;align=left;spacingLeft=6;" parent="C-vyLk0tnHw3VtMMgP7b-17" vertex="1">
          <mxGeometry x="30" width="290" height="30" as="geometry" />
        </mxCell>
        <mxCell id="nnJnn2oJ8_Mi61VkBBYr-52" style="edgeStyle=orthogonalEdgeStyle;rounded=0;orthogonalLoop=1;jettySize=auto;html=1;exitX=1;exitY=0.5;exitDx=0;exitDy=0;entryX=0;entryY=0.5;entryDx=0;entryDy=0;endArrow=ERmany;endFill=0;" edge="1" parent="1" source="nnJnn2oJ8_Mi61VkBBYr-13" target="nnJnn2oJ8_Mi61VkBBYr-33">
          <mxGeometry relative="1" as="geometry" />
        </mxCell>
        <mxCell id="nnJnn2oJ8_Mi61VkBBYr-26" value="CATEDRATICO_ASIGNACION_CURSO_SECCION" style="shape=table;startSize=26;container=1;collapsible=1;childLayout=tableLayout;fixedRows=1;rowLines=0;fontStyle=1;align=center;resizeLast=1;fillColor=#d5e8d4;strokeColor=#82b366;" vertex="1" parent="1">
          <mxGeometry x="641" y="292" width="419" height="130" as="geometry" />
        </mxCell>
        <mxCell id="nnJnn2oJ8_Mi61VkBBYr-27" value="" style="shape=partialRectangle;collapsible=0;dropTarget=0;pointerEvents=0;fillColor=none;points=[[0,0.5],[1,0.5]];portConstraint=eastwest;top=0;left=0;right=0;bottom=1;" vertex="1" parent="nnJnn2oJ8_Mi61VkBBYr-26">
          <mxGeometry y="26" width="419" height="30" as="geometry" />
        </mxCell>
        <mxCell id="nnJnn2oJ8_Mi61VkBBYr-28" value="PK" style="shape=partialRectangle;overflow=hidden;connectable=0;fillColor=none;top=0;left=0;bottom=0;right=0;fontStyle=1;" vertex="1" parent="nnJnn2oJ8_Mi61VkBBYr-27">
          <mxGeometry width="31.882352941176805" height="30" as="geometry" />
        </mxCell>
        <mxCell id="nnJnn2oJ8_Mi61VkBBYr-29" value="ID_CATEDRATICO_ASIGNACION_CURSO_SECCION INT &#xa;NOT NULL UNIQUE AUTO_INCREMENT" style="shape=partialRectangle;overflow=hidden;connectable=0;fillColor=none;top=0;left=0;bottom=0;right=0;align=left;spacingLeft=6;fontStyle=5;" vertex="1" parent="nnJnn2oJ8_Mi61VkBBYr-27">
          <mxGeometry x="31.882352941176805" width="387.1176470588232" height="30" as="geometry" />
        </mxCell>
        <mxCell id="nnJnn2oJ8_Mi61VkBBYr-30" value="" style="shape=partialRectangle;collapsible=0;dropTarget=0;pointerEvents=0;fillColor=none;points=[[0,0.5],[1,0.5]];portConstraint=eastwest;top=0;left=0;right=0;bottom=0;" vertex="1" parent="nnJnn2oJ8_Mi61VkBBYr-26">
          <mxGeometry y="56" width="419" height="30" as="geometry" />
        </mxCell>
        <mxCell id="nnJnn2oJ8_Mi61VkBBYr-31" value="FK1" style="shape=partialRectangle;overflow=hidden;connectable=0;fillColor=none;top=0;left=0;bottom=0;right=0;" vertex="1" parent="nnJnn2oJ8_Mi61VkBBYr-30">
          <mxGeometry width="31.882352941176805" height="30" as="geometry" />
        </mxCell>
        <mxCell id="nnJnn2oJ8_Mi61VkBBYr-32" value="ID_CATEDRATICO" style="shape=partialRectangle;overflow=hidden;connectable=0;fillColor=none;top=0;left=0;bottom=0;right=0;align=left;spacingLeft=6;" vertex="1" parent="nnJnn2oJ8_Mi61VkBBYr-30">
          <mxGeometry x="31.882352941176805" width="387.1176470588232" height="30" as="geometry" />
        </mxCell>
        <mxCell id="nnJnn2oJ8_Mi61VkBBYr-33" value="" style="shape=partialRectangle;collapsible=0;dropTarget=0;pointerEvents=0;fillColor=none;points=[[0,0.5],[1,0.5]];portConstraint=eastwest;top=0;left=0;right=0;bottom=0;" vertex="1" parent="nnJnn2oJ8_Mi61VkBBYr-26">
          <mxGeometry y="86" width="419" height="30" as="geometry" />
        </mxCell>
        <mxCell id="nnJnn2oJ8_Mi61VkBBYr-34" value="FK2" style="shape=partialRectangle;overflow=hidden;connectable=0;fillColor=none;top=0;left=0;bottom=0;right=0;" vertex="1" parent="nnJnn2oJ8_Mi61VkBBYr-33">
          <mxGeometry width="31.882352941176805" height="30" as="geometry" />
        </mxCell>
        <mxCell id="nnJnn2oJ8_Mi61VkBBYr-35" value="ID_ASIGNACION_CURSO_SECCION" style="shape=partialRectangle;overflow=hidden;connectable=0;fillColor=none;top=0;left=0;bottom=0;right=0;align=left;spacingLeft=6;" vertex="1" parent="nnJnn2oJ8_Mi61VkBBYr-33">
          <mxGeometry x="31.882352941176805" width="387.1176470588232" height="30" as="geometry" />
        </mxCell>
        <mxCell id="C-vyLk0tnHw3VtMMgP7b-23" value="ESTUDIANTE" style="shape=table;startSize=31;container=1;collapsible=1;childLayout=tableLayout;fixedRows=1;rowLines=0;fontStyle=1;align=center;resizeLast=1;fillColor=#fff2cc;strokeColor=#d6b656;" parent="1" vertex="1">
          <mxGeometry x="-408" y="-56" width="310" height="160" as="geometry" />
        </mxCell>
        <mxCell id="C-vyLk0tnHw3VtMMgP7b-24" value="" style="shape=partialRectangle;collapsible=0;dropTarget=0;pointerEvents=0;fillColor=none;points=[[0,0.5],[1,0.5]];portConstraint=eastwest;top=0;left=0;right=0;bottom=1;" parent="C-vyLk0tnHw3VtMMgP7b-23" vertex="1">
          <mxGeometry y="31" width="310" height="30" as="geometry" />
        </mxCell>
        <mxCell id="C-vyLk0tnHw3VtMMgP7b-25" value="PK" style="shape=partialRectangle;overflow=hidden;connectable=0;fillColor=none;top=0;left=0;bottom=0;right=0;fontStyle=1;" parent="C-vyLk0tnHw3VtMMgP7b-24" vertex="1">
          <mxGeometry width="30" height="30" as="geometry" />
        </mxCell>
        <mxCell id="C-vyLk0tnHw3VtMMgP7b-26" value="ID_ESTUDIANTE  INT(9) NOT NULL UNIQUE&#xa;AUTO_INCREMET" style="shape=partialRectangle;overflow=hidden;connectable=0;fillColor=none;top=0;left=0;bottom=0;right=0;align=left;spacingLeft=6;fontStyle=1;" parent="C-vyLk0tnHw3VtMMgP7b-24" vertex="1">
          <mxGeometry x="30" width="280" height="30" as="geometry" />
        </mxCell>
        <mxCell id="C-vyLk0tnHw3VtMMgP7b-27" value="" style="shape=partialRectangle;collapsible=0;dropTarget=0;pointerEvents=0;fillColor=none;points=[[0,0.5],[1,0.5]];portConstraint=eastwest;top=0;left=0;right=0;bottom=0;" parent="C-vyLk0tnHw3VtMMgP7b-23" vertex="1">
          <mxGeometry y="61" width="310" height="30" as="geometry" />
        </mxCell>
        <mxCell id="C-vyLk0tnHw3VtMMgP7b-28" value="" style="shape=partialRectangle;overflow=hidden;connectable=0;fillColor=none;top=0;left=0;bottom=0;right=0;" parent="C-vyLk0tnHw3VtMMgP7b-27" vertex="1">
          <mxGeometry width="30" height="30" as="geometry" />
        </mxCell>
        <mxCell id="C-vyLk0tnHw3VtMMgP7b-29" value="CARNET" style="shape=partialRectangle;overflow=hidden;connectable=0;fillColor=none;top=0;left=0;bottom=0;right=0;align=left;spacingLeft=6;" parent="C-vyLk0tnHw3VtMMgP7b-27" vertex="1">
          <mxGeometry x="30" width="280" height="30" as="geometry" />
        </mxCell>
        <mxCell id="2rsptkbwco0u7Pz3cuh8-1" value="" style="shape=partialRectangle;collapsible=0;dropTarget=0;pointerEvents=0;fillColor=none;points=[[0,0.5],[1,0.5]];portConstraint=eastwest;top=0;left=0;right=0;bottom=0;" parent="C-vyLk0tnHw3VtMMgP7b-23" vertex="1">
          <mxGeometry y="91" width="310" height="30" as="geometry" />
        </mxCell>
        <mxCell id="2rsptkbwco0u7Pz3cuh8-2" value="&#xa;&#xa;" style="shape=partialRectangle;overflow=hidden;connectable=0;fillColor=none;top=0;left=0;bottom=0;right=0;" parent="2rsptkbwco0u7Pz3cuh8-1" vertex="1">
          <mxGeometry width="30" height="30" as="geometry" />
        </mxCell>
        <mxCell id="2rsptkbwco0u7Pz3cuh8-3" value="DPI" style="shape=partialRectangle;overflow=hidden;connectable=0;fillColor=none;top=0;left=0;bottom=0;right=0;align=left;spacingLeft=6;" parent="2rsptkbwco0u7Pz3cuh8-1" vertex="1">
          <mxGeometry x="30" width="280" height="30" as="geometry" />
        </mxCell>
        <mxCell id="2rsptkbwco0u7Pz3cuh8-4" value="" style="shape=partialRectangle;collapsible=0;dropTarget=0;pointerEvents=0;fillColor=none;points=[[0,0.5],[1,0.5]];portConstraint=eastwest;top=0;left=0;right=0;bottom=0;" parent="C-vyLk0tnHw3VtMMgP7b-23" vertex="1">
          <mxGeometry y="121" width="310" height="30" as="geometry" />
        </mxCell>
        <mxCell id="2rsptkbwco0u7Pz3cuh8-5" value="&#xa;&#xa;" style="shape=partialRectangle;overflow=hidden;connectable=0;fillColor=none;top=0;left=0;bottom=0;right=0;" parent="2rsptkbwco0u7Pz3cuh8-4" vertex="1">
          <mxGeometry width="30" height="30" as="geometry" />
        </mxCell>
        <mxCell id="2rsptkbwco0u7Pz3cuh8-6" value="APELLIDO CHAR(20) NOT NULL" style="shape=partialRectangle;overflow=hidden;connectable=0;fillColor=none;top=0;left=0;bottom=0;right=0;align=left;spacingLeft=6;" parent="2rsptkbwco0u7Pz3cuh8-4" vertex="1">
          <mxGeometry x="30" width="280" height="30" as="geometry" />
        </mxCell>
      </root>
    </mxGraphModel>
  </diagram>
</mxfile>
